<?xml version="1.0" standalone="no"?>
<!DOCTYPE svg PUBLIC "-//W3C//DTD SVG 20010904//EN"
 "http://www.w3.org/TR/2001/REC-SVG-20010904/DTD/svg10.dtd">
<svg version="1.0" xmlns="http://www.w3.org/2000/svg"
 width="296.000000pt" height="296.000000pt" viewBox="0 0 296.000000 296.000000"
 preserveAspectRatio="xMidYMid meet">
<metadata>
Created by potrace 1.14, written by Peter Selinger 2001-2017
</metadata>
<g transform="translate(0.000000,296.000000) scale(0.100000,-0.100000)"
fill="#000000" stroke="none">
<path d="M0 1480 l0 -1480 1480 0 1480 0 0 1480 0 1480 -1480 0 -1480 0 0
-1480z m204 1405 c6 -11 12 -22 13 -24 2 -2 13 8 26 22 49 58 159 17 142 -53
-4 -14 -11 -27 -16 -28 -5 -2 0 -15 11 -29 26 -33 25 -49 -5 -78 -29 -30 -94
-34 -119 -9 -14 14 -18 14 -38 0 -23 -16 -120 -22 -152 -10 -28 11 -17 38 34
89 36 36 50 57 50 77 0 21 -5 28 -19 28 -11 0 -23 -4 -26 -10 -8 -13 -42 -13
-50 0 -3 5 2 18 12 30 25 29 120 25 137 -5z m416 0 l23 -24 19 24 c15 20 29
25 63 25 40 0 47 -4 69 -36 l25 -37 7 37 6 37 61 -3 c72 -4 89 -24 28 -34 -49
-8 -53 -26 -9 -39 17 -6 41 -23 52 -38 l21 -28 -24 -44 c-15 -28 -32 -46 -48
-50 -30 -7 -83 3 -83 16 0 12 -48 11 -52 -1 -2 -6 -20 -13 -41 -17 -30 -4 -45
-1 -67 16 -35 25 -34 25 -56 4 -27 -27 -91 -23 -115 7 -28 38 -27 155 3 187
30 32 87 31 118 -2z m2252 -93 c9 -79 -2 -112 -37 -112 -18 0 -25 5 -25 20 0
22 -19 29 -100 32 -67 4 -73 22 -7 26 26 2 47 7 47 11 0 4 16 26 36 50 25 29
43 41 58 39 18 -3 22 -12 28 -66z m-2414 -99 c2 -9 -7 -13 -27 -13 -21 0 -31
5 -31 16 0 19 51 16 58 -3z m2407 -133 c16 -18 17 -23 4 -47 -11 -20 -11 -27
-1 -30 6 -3 12 -14 12 -26 0 -57 -94 -81 -126 -33 -12 19 -26 26 -57 28 -52 4
-55 22 -6 26 25 2 51 -5 81 -22 25 -14 48 -22 52 -19 14 14 5 34 -20 43 -26
10 -25 30 2 30 8 0 14 7 14 15 0 13 -7 15 -35 9 -30 -5 -35 -4 -35 13 0 28 8
33 55 33 29 0 47 -6 60 -20z m-1479 -216 c159 -51 257 -143 299 -280 8 -27 15
-68 15 -92 l0 -43 -141 3 -140 3 -18 53 c-26 76 -58 105 -141 126 -67 18 -74
18 -133 2 -85 -23 -104 -34 -128 -73 -38 -61 1 -126 95 -161 91 -34 151 -52
174 -52 12 0 30 -4 40 -9 9 -5 44 -16 77 -26 93 -27 200 -82 248 -129 24 -23
57 -69 73 -101 27 -55 29 -69 29 -170 0 -104 -2 -114 -32 -175 -56 -113 -129
-173 -262 -216 -73 -23 -88 -25 -242 -21 -90 2 -182 9 -205 15 -158 44 -275
167 -319 333 -23 85 -21 97 23 108 64 18 210 25 225 12 8 -6 20 -30 26 -54 16
-56 70 -128 112 -148 82 -39 163 -50 225 -30 16 5 41 12 55 15 60 13 126 112
114 172 -11 62 -69 99 -210 134 -16 4 -53 15 -81 24 -29 9 -63 16 -77 16 -14
0 -29 5 -32 10 -3 6 -13 10 -22 10 -13 0 -28 6 -113 43 -28 12 -108 73 -128
97 -60 71 -87 149 -86 250 2 165 105 290 289 351 70 24 321 25 391 3z m834
-123 c0 -90 -3 -110 -16 -115 -30 -12 -239 -7 -252 6 -13 13 -17 199 -5 211 3
4 66 7 140 7 l133 0 0 -109z m642 72 c28 -25 22 -57 -17 -90 -19 -17 -35 -33
-35 -36 0 -3 15 -7 33 -9 57 -5 34 -23 -35 -26 -82 -4 -85 4 -23 65 43 41 53
62 38 76 -3 4 -17 0 -30 -8 -14 -10 -29 -13 -38 -8 -13 8 -13 11 1 31 19 27
78 30 106 5z m-124 -100 c2 -9 -9 -13 -37 -13 -39 0 -57 10 -44 24 12 11 76 2
81 -11z m112 -249 c0 -83 -1 -85 -22 -82 -20 3 -23 10 -26 51 -3 39 -6 47 -23
47 -10 0 -19 4 -19 10 0 15 53 60 72 60 16 0 18 -11 18 -86z m-632 -448 c2
-377 0 -481 -10 -488 -16 -10 -229 -10 -244 0 -13 8 -32 941 -19 961 4 8 48
11 138 9 l132 -3 3 -479z m517 424 c7 -12 -39 -24 -60 -16 -8 3 -15 10 -15 16
0 13 67 13 75 0z m113 -252 c-3 -75 -5 -83 -23 -83 -17 0 -20 8 -23 52 -3 45
-6 52 -25 55 -21 3 -21 4 7 31 16 15 37 27 48 27 17 0 19 -7 16 -82z m-124
-14 c25 -10 8 -24 -30 -24 -32 0 -42 8 -27 23 8 9 36 9 57 1z m138 -191 c27
-25 22 -46 -22 -85 -42 -38 -42 -48 1 -48 15 0 30 -4 33 -9 12 -19 -96 -29
-123 -12 -11 7 -4 20 33 58 25 28 46 57 46 67 0 18 -35 23 -45 6 -9 -15 -35
-12 -35 3 0 37 77 51 112 20z m-172 -31 c0 -11 11 -23 28 -29 l27 -10 -26 -11
c-15 -6 -29 -20 -32 -31 -7 -27 -27 -27 -34 -1 -3 11 -16 23 -29 26 -31 8 -31
22 1 34 14 5 25 16 25 25 0 8 9 15 20 15 13 0 20 -7 20 -18z m160 -242 c23
-23 24 -33 10 -61 -9 -15 -7 -21 5 -25 20 -8 19 -33 -2 -56 -20 -23 -85 -24
-103 -3 -18 21 3 46 22 27 17 -17 45 -15 52 3 4 10 -3 20 -19 27 -30 14 -32
24 -5 31 11 3 20 13 20 22 0 14 -7 16 -40 10 -39 -7 -47 -1 -32 21 18 28 66
30 92 4z m-163 -31 c3 -11 17 -25 32 -31 l26 -11 -27 -10 c-17 -6 -28 -18 -28
-29 0 -11 -7 -18 -20 -18 -11 0 -20 7 -20 15 0 9 -11 21 -25 27 -31 14 -32 24
-1 32 13 3 26 15 29 26 7 26 27 26 34 -1z m173 -279 c3 -25 9 -50 13 -57 4 -6
3 -14 -3 -18 -5 -3 -10 -15 -10 -26 0 -25 -36 -26 -43 -1 -2 11 -17 22 -36 25
-36 7 -41 33 -13 59 9 9 25 28 35 43 28 39 51 29 57 -25z m-173 2 c2 -10 17
-23 31 -29 l27 -10 -26 -11 c-15 -6 -29 -20 -32 -31 -7 -28 -25 -27 -36 3 -5
13 -20 26 -33 30 l-23 7 28 15 c15 8 27 21 27 29 0 22 31 18 37 -3z m-2459
-189 l2 -163 -30 0 -30 0 0 104 0 103 -37 -1 c-29 -1 -38 3 -41 18 -5 25 84
107 113 103 19 -2 20 -10 23 -164z m270 69 c3 -88 4 -93 27 -104 31 -14 31
-23 0 -50 -16 -14 -25 -32 -25 -50 0 -27 -3 -29 -32 -26 -29 3 -34 7 -38 38
l-5 35 -62 3 c-60 3 -63 4 -63 29 0 15 26 60 67 117 75 102 80 107 108 104 18
-3 20 -12 23 -96z m-318 -448 c11 -11 12 -20 3 -43 -14 -37 -10 -41 41 -41 46
1 60 9 100 63 19 24 36 37 52 37 22 0 24 -4 24 -43 0 -24 5 -48 10 -53 16 -16
-16 -86 -38 -82 -9 2 -18 13 -20 26 -3 20 -8 22 -77 22 -67 0 -74 -2 -89 -25
-13 -20 -25 -25 -58 -25 -64 0 -102 48 -63 80 12 10 12 15 -1 35 -14 22 -14
26 3 43 10 11 25 22 33 25 21 8 62 -2 80 -19z"/>
<path d="M306 2852 c-2 -4 -1 -14 5 -22 7 -12 9 -10 9 8 0 23 -5 28 -14 14z"/>
<path d="M176 2764 c-21 -24 -37 -46 -35 -48 2 -2 23 -6 45 -9 l42 -5 -1 35
c-1 19 5 38 12 43 15 9 6 31 -12 29 -7 0 -30 -21 -51 -45z"/>
<path d="M297 2763 c-13 -12 -7 -41 8 -47 18 -6 30 16 21 39 -6 16 -18 19 -29
8z"/>
<path d="M710 2844 c0 -14 4 -23 10 -19 6 3 10 15 10 26 0 10 -4 19 -10 19 -5
0 -10 -12 -10 -26z"/>
<path d="M550 2835 c-13 -34 -13 -58 2 -90 16 -35 28 -14 28 52 0 58 -15 77
-30 38z"/>
<path d="M783 2802 c-9 -6 -7 -12 7 -25 11 -9 20 -24 20 -32 0 -8 9 -15 20
-15 11 0 29 -5 40 -12 25 -16 34 -6 34 37 0 40 -10 53 -26 37 -17 -17 -59 -15
-72 3 -6 8 -16 11 -23 7z"/>
<path d="M710 2740 c0 -16 4 -30 9 -30 12 0 24 37 16 50 -12 20 -25 10 -25
-20z"/>
<path d="M397 701 c-22 -38 -22 -41 8 -41 22 0 25 4 25 35 0 43 -10 44 -33 6z"/>
<path d="M110 280 c0 -11 5 -20 10 -20 6 0 10 9 10 20 0 11 -4 20 -10 20 -5 0
-10 -9 -10 -20z"/>
<path d="M110 205 c0 -8 7 -15 15 -15 9 0 12 6 9 15 -4 8 -10 15 -15 15 -5 0
-9 -7 -9 -15z"/>
</g>
</svg>
